<?xml version="1.0" encoding="UTF-8"?>
<svg width="141px" height="55px" viewBox="0 0 141 55" version="1.1" xmlns="http://www.w3.org/2000/svg" xmlns:xlink="http://www.w3.org/1999/xlink">
    <!-- Generator: Sketch 51.3 (57544) - http://www.bohemiancoding.com/sketch -->
    <title>logo-jobcase-for-employers-white</title>
    <desc>Created with Sketch.</desc>
    <defs>
        <polygon id="path-1" points="41.9444962 42.647541 0 42.647541 0 0.0253770492 41.9444962 0.0253770492"></polygon>
    </defs>
    <g id="Symbols" stroke="none" stroke-width="1" fill="none" fill-rule="evenodd">
        <g id="Navigation" transform="translate(0.000000, -41.000000)">
            <g transform="translate(0.000000, 5.000000)" id="logo-jobcase-for-employers-white">
                <g transform="translate(0.000000, 36.000000)">
                    <path d="M48.4633789,51 L48.4633789,44.3935547 L47.2548828,44.3935547 L47.2548828,43.0751953 L48.4633789,43.0751953 L48.4633789,42.3500977 C48.4633789,41.471187 48.7075171,40.7924829 49.1958008,40.3139648 C49.6840845,39.8354468 50.3676714,39.5961914 51.246582,39.5961914 C51.5590836,39.5961914 51.8911115,39.6401363 52.2426758,39.7280273 L52.1987305,41.1196289 C52.003417,41.0805662 51.7763685,41.0610352 51.5175781,41.0610352 C50.6679645,41.0610352 50.2431641,41.4980425 50.2431641,42.3720703 L50.2431641,43.0751953 L51.8544922,43.0751953 L51.8544922,44.3935547 L50.2431641,44.3935547 L50.2431641,51 L48.4633789,51 Z M52.8212891,46.9643555 C52.8212891,46.1879844 52.9750961,45.4885285 53.2827148,44.8659668 C53.5903336,44.2434051 54.0224582,43.7648943 54.5791016,43.4304199 C55.135745,43.0959456 55.775387,42.9287109 56.4980469,42.9287109 C57.5673882,42.9287109 58.4352994,43.2729458 59.1018066,43.9614258 C59.7683139,44.6499058 60.1284177,45.5629826 60.1821289,46.7006836 L60.1894531,47.1181641 C60.1894531,47.899418 60.0393081,48.5976532 59.7390137,49.2128906 C59.4387192,49.8281281 59.009036,50.3041975 58.4499512,50.6411133 C57.8908663,50.978029 57.2451208,51.1464844 56.5126953,51.1464844 C55.3945257,51.1464844 54.4997592,50.7741736 53.8283691,50.029541 C53.1569791,49.2849084 52.8212891,48.2924867 52.8212891,47.0522461 L52.8212891,46.9643555 Z M54.6010742,47.1181641 C54.6010742,47.9335978 54.7695296,48.5720192 55.1064453,49.0334473 C55.4433611,49.4948754 55.9121064,49.7255859 56.5126953,49.7255859 C57.1132843,49.7255859 57.5808089,49.4912133 57.9152832,49.0224609 C58.2497575,48.5537086 58.4169922,47.8676803 58.4169922,46.9643555 C58.4169922,46.1635702 58.2448748,45.5288109 57.9006348,45.0600586 C57.5563948,44.5913063 57.0888701,44.3569336 56.4980469,44.3569336 C55.9169893,44.3569336 55.4555681,44.5876442 55.1137695,45.0490723 C54.7719709,45.5105004 54.6010742,46.2001907 54.6010742,47.1181641 Z M65.84375,44.7011719 C65.6093738,44.6621092 65.367677,44.6425781 65.1186523,44.6425781 C64.3032186,44.6425781 63.7539077,44.955075 63.4707031,45.5800781 L63.4707031,51 L61.690918,51 L61.690918,43.0751953 L63.3901367,43.0751953 L63.434082,43.9614258 C63.8637717,43.2729458 64.4594688,42.9287109 65.2211914,42.9287109 C65.4750989,42.9287109 65.6850578,42.9628903 65.8510742,43.03125 L65.84375,44.7011719 Z M74.1933594,51.1464844 C73.065424,51.1464844 72.1511266,50.7912633 71.4504395,50.0808105 C70.7497524,49.3703578 70.3994141,48.4243223 70.3994141,47.2426758 L70.3994141,47.0229492 C70.3994141,46.2319296 70.5520004,45.5251496 70.8571777,44.9025879 C71.162355,44.2800262 71.5908176,43.7954119 72.1425781,43.4487305 C72.6943387,43.102049 73.3095669,42.9287109 73.9882812,42.9287109 C75.0673882,42.9287109 75.9011201,43.2729458 76.489502,43.9614258 C77.0778838,44.6499058 77.3720703,45.6240171 77.3720703,46.8837891 L77.3720703,47.6015625 L72.1938477,47.6015625 C72.2475589,48.2558626 72.4660625,48.7734356 72.8493652,49.1542969 C73.2326679,49.5351582 73.7148408,49.7255859 74.2958984,49.7255859 C75.1113322,49.7255859 75.7753881,49.3959994 76.2880859,48.7368164 L77.2475586,49.6523438 C76.9301742,50.1259789 76.5065944,50.4934069 75.9768066,50.7546387 C75.4470188,51.0158704 74.8525424,51.1464844 74.1933594,51.1464844 Z M73.980957,44.3569336 C73.4926733,44.3569336 73.0983902,44.5278303 72.7980957,44.8696289 C72.4978012,45.2114275 72.3061528,45.6874969 72.2231445,46.2978516 L75.6142578,46.2978516 L75.6142578,46.1660156 C75.5751951,45.5703095 75.4165053,45.1198746 75.1381836,44.8146973 C74.8598619,44.50952 74.4741236,44.3569336 73.980957,44.3569336 Z M80.4262695,43.0751953 L80.4775391,43.902832 C81.0341825,43.2534147 81.7958936,42.9287109 82.7626953,42.9287109 C83.8222709,42.9287109 84.5473613,43.3339803 84.9379883,44.1445312 C85.514163,43.3339803 86.3247018,42.9287109 87.3696289,42.9287109 C88.2436567,42.9287109 88.894285,43.1704077 89.3215332,43.6538086 C89.7487814,44.1372094 89.9672851,44.8500929 89.9770508,45.7924805 L89.9770508,51 L88.1972656,51 L88.1972656,45.84375 C88.1972656,45.3408178 88.0874034,44.9721691 87.8676758,44.737793 C87.6479481,44.5034168 87.2841822,44.3862305 86.7763672,44.3862305 C86.3710917,44.3862305 86.0402845,44.494872 85.7839355,44.7121582 C85.5275866,44.9294444 85.348145,45.2138654 85.2456055,45.5654297 L85.2529297,51 L83.4731445,51 L83.4731445,45.7851562 C83.4487303,44.8525344 82.9726609,44.3862305 82.0449219,44.3862305 C81.3320277,44.3862305 80.8266616,44.6767549 80.5288086,45.2578125 L80.5288086,51 L78.7490234,51 L78.7490234,43.0751953 L80.4262695,43.0751953 Z M98.7441406,47.1181641 C98.7441406,48.3437561 98.4658231,49.3215296 97.9091797,50.0515137 C97.3525363,50.7814978 96.6054734,51.1464844 95.6679688,51.1464844 C94.7988238,51.1464844 94.10303,50.8608427 93.5805664,50.2895508 L93.5805664,54.046875 L91.8007812,54.046875 L91.8007812,43.0751953 L93.4414062,43.0751953 L93.5146484,43.8808594 C94.037112,43.2460906 94.7475541,42.9287109 95.6459961,42.9287109 C96.6127978,42.9287109 97.3708469,43.2888148 97.920166,44.0090332 C98.4694852,44.7292516 98.7441406,45.7289975 98.7441406,47.0083008 L98.7441406,47.1181641 Z M96.9716797,46.9643555 C96.9716797,46.1733359 96.8142106,45.5459008 96.4992676,45.0820312 C96.1843246,44.6181617 95.7338896,44.3862305 95.1479492,44.3862305 C94.4204065,44.3862305 93.8979508,44.6865204 93.5805664,45.2871094 L93.5805664,48.8027344 C93.9028336,49.4179718 94.4301721,49.7255859 95.1625977,49.7255859 C95.7290067,49.7255859 96.1721175,49.4973167 96.4919434,49.0407715 C96.8117692,48.5842262 96.9716797,47.8920945 96.9716797,46.9643555 Z M102.142578,51 L100.362793,51 L100.362793,39.75 L102.142578,39.75 L102.142578,51 Z M103.746582,46.9643555 C103.746582,46.1879844 103.900389,45.4885285 104.208008,44.8659668 C104.515627,44.2434051 104.947751,43.7648943 105.504395,43.4304199 C106.061038,43.0959456 106.70068,42.9287109 107.42334,42.9287109 C108.492681,42.9287109 109.360592,43.2729458 110.0271,43.9614258 C110.693607,44.6499058 111.053711,45.5629826 111.107422,46.7006836 L111.114746,47.1181641 C111.114746,47.899418 110.964601,48.5976532 110.664307,49.2128906 C110.364012,49.8281281 109.934329,50.3041975 109.375244,50.6411133 C108.816159,50.978029 108.170414,51.1464844 107.437988,51.1464844 C106.319819,51.1464844 105.425052,50.7741736 104.753662,50.029541 C104.082272,49.2849084 103.746582,48.2924867 103.746582,47.0522461 L103.746582,46.9643555 Z M105.526367,47.1181641 C105.526367,47.9335978 105.694823,48.5720192 106.031738,49.0334473 C106.368654,49.4948754 106.837399,49.7255859 107.437988,49.7255859 C108.038577,49.7255859 108.506102,49.4912133 108.840576,49.0224609 C109.175051,48.5537086 109.342285,47.8676803 109.342285,46.9643555 C109.342285,46.1635702 109.170168,45.5288109 108.825928,45.0600586 C108.481688,44.5913063 108.014163,44.3569336 107.42334,44.3569336 C106.842282,44.3569336 106.380861,44.5876442 106.039062,45.0490723 C105.697264,45.5105004 105.526367,46.2001907 105.526367,47.1181641 Z M115.39209,48.4511719 L117.003418,43.0751953 L118.900391,43.0751953 L115.750977,52.2011719 C115.267576,53.5341864 114.447271,54.2006836 113.290039,54.2006836 C113.031249,54.2006836 112.745607,54.1567387 112.433105,54.0688477 L112.433105,52.6918945 L112.77002,52.7138672 C113.219241,52.7138672 113.557372,52.6320809 113.784424,52.4685059 C114.011476,52.3049308 114.190917,52.0302754 114.322754,51.6445312 L114.579102,50.9633789 L111.795898,43.0751953 L113.714844,43.0751953 L115.39209,48.4511719 Z M123.412109,51.1464844 C122.284174,51.1464844 121.369877,50.7912633 120.669189,50.0808105 C119.968502,49.3703578 119.618164,48.4243223 119.618164,47.2426758 L119.618164,47.0229492 C119.618164,46.2319296 119.77075,45.5251496 120.075928,44.9025879 C120.381105,44.2800262 120.809568,43.7954119 121.361328,43.4487305 C121.913089,43.102049 122.528317,42.9287109 123.207031,42.9287109 C124.286138,42.9287109 125.11987,43.2729458 125.708252,43.9614258 C126.296634,44.6499058 126.59082,45.6240171 126.59082,46.8837891 L126.59082,47.6015625 L121.412598,47.6015625 C121.466309,48.2558626 121.684813,48.7734356 122.068115,49.1542969 C122.451418,49.5351582 122.933591,49.7255859 123.514648,49.7255859 C124.330082,49.7255859 124.994138,49.3959994 125.506836,48.7368164 L126.466309,49.6523438 C126.148924,50.1259789 125.725344,50.4934069 125.195557,50.7546387 C124.665769,51.0158704 124.071292,51.1464844 123.412109,51.1464844 Z M123.199707,44.3569336 C122.711423,44.3569336 122.31714,44.5278303 122.016846,44.8696289 C121.716551,45.2114275 121.524903,45.6874969 121.441895,46.2978516 L124.833008,46.2978516 L124.833008,46.1660156 C124.793945,45.5703095 124.635255,45.1198746 124.356934,44.8146973 C124.078612,44.50952 123.692874,44.3569336 123.199707,44.3569336 Z M132.120605,44.7011719 C131.886229,44.6621092 131.644532,44.6425781 131.395508,44.6425781 C130.580074,44.6425781 130.030763,44.955075 129.747559,45.5800781 L129.747559,51 L127.967773,51 L127.967773,43.0751953 L129.666992,43.0751953 L129.710938,43.9614258 C130.140627,43.2729458 130.736324,42.9287109 131.498047,42.9287109 C131.751954,42.9287109 131.961913,42.9628903 132.12793,43.03125 L132.120605,44.7011719 Z M137.687012,48.8466797 C137.687012,48.5292953 137.556398,48.2875985 137.295166,48.121582 C137.033934,47.9555656 136.600589,47.8090827 135.995117,47.6821289 C135.389645,47.5551751 134.884279,47.3940439 134.479004,47.1987305 C133.590328,46.7690408 133.145996,46.1464885 133.145996,45.3310547 C133.145996,44.6474575 133.434079,44.0761742 134.010254,43.6171875 C134.586429,43.1582008 135.318843,42.9287109 136.20752,42.9287109 C137.15479,42.9287109 137.920163,43.1630836 138.503662,43.6318359 C139.087161,44.1005883 139.378906,44.7084924 139.378906,45.4555664 L137.599121,45.4555664 C137.599121,45.1137678 137.472169,44.8293468 137.218262,44.6022949 C136.964354,44.375243 136.627444,44.2617188 136.20752,44.2617188 C135.816893,44.2617188 135.498292,44.3520499 135.251709,44.5327148 C135.005126,44.7133798 134.881836,44.9550766 134.881836,45.2578125 C134.881836,45.5312514 134.996581,45.7436516 135.226074,45.8950195 C135.455568,46.0463875 135.91943,46.1989738 136.617676,46.3527832 C137.315921,46.5065926 137.864012,46.6896962 138.261963,46.9020996 C138.659914,47.114503 138.955321,47.3696274 139.148193,47.6674805 C139.341065,47.9653335 139.4375,48.326658 139.4375,48.7514648 C139.4375,49.464359 139.142093,50.0417458 138.55127,50.4836426 C137.960446,50.9255393 137.186528,51.1464844 136.229492,51.1464844 C135.580075,51.1464844 135.001467,51.029298 134.493652,50.7949219 C133.985837,50.5605457 133.590333,50.2382833 133.307129,49.828125 C133.023924,49.4179667 132.882324,48.9760766 132.882324,48.5024414 L134.61084,48.5024414 C134.635254,48.9223654 134.793944,49.2458485 135.086914,49.4729004 C135.379884,49.6999523 135.768064,49.8134766 136.251465,49.8134766 C136.720217,49.8134766 137.076659,49.7243661 137.320801,49.5461426 C137.564943,49.367919 137.687012,49.1347671 137.687012,48.8466797 Z" id="for-employers" fill="#FFFFFF"></path>
                    <g id="JC-Logo/Knock-Out">
                        <g id="Page-1">
                            <path d="M139.139648,34.7704697 C139.328002,34.7704697 139.438257,34.6330107 139.438257,34.4268221 C139.438257,34.2114697 139.300438,34.0877566 139.13046,34.0877566 L138.643498,34.0877566 L138.643498,34.7704697 L139.139648,34.7704697 Z M138.275979,33.7627893 L139.167212,33.7627893 C139.534731,33.7627893 139.801182,34.1018549 139.801182,34.4268221 C139.801182,34.6971582 139.635798,34.9445844 139.392317,35.0228303 L139.87928,35.7968303 L139.470415,35.7968303 L139.024798,35.0866254 L138.643498,35.0866254 L138.643498,35.7968303 L138.275979,35.7968303 L138.275979,33.7627893 Z M140.504062,34.7842156 C140.504062,33.9640434 139.870092,33.331732 139.006423,33.331732 C138.138159,33.331732 137.517971,33.9640434 137.517971,34.7796336 C137.517971,35.6043877 138.138159,36.2416336 139.006423,36.2416336 C139.851716,36.2416336 140.504062,35.6456254 140.504062,34.7842156 Z M137.292513,34.7796336 C137.292513,33.8361008 138.014122,33.1304779 139.001829,33.1304779 C139.989535,33.1304779 140.729167,33.8361008 140.729167,34.7796336 C140.729167,35.7284533 139.989535,36.4383057 139.001829,36.4383057 C138.014122,36.4383057 137.292513,35.7284533 137.292513,34.7796336 Z" id="Fill-1" fill="#A0A0A0"></path>
                            <path d="M55.0777098,13.4849057 C55.0777098,14.2243648 54.8391759,14.8055697 54.3592812,15.228873 C53.8804466,15.6532336 53.3157398,15.8661189 52.6630406,15.8661189 C52.0138752,15.8661189 51.448815,15.6532336 50.9692737,15.228873 C50.4890256,14.8055697 50.2504917,14.2243648 50.2504917,13.4849057 C50.2504917,12.7454467 50.4890256,12.1635369 50.9692737,11.7388238 C51.448815,11.3155205 52.0138752,11.1036926 52.6630406,11.1036926 C53.3157398,11.1036926 53.8804466,11.3155205 54.3592812,11.7388238 C54.8391759,12.1635369 55.0777098,12.7454467 55.0777098,13.4849057" id="Fill-3" fill="#FFFFFF"></path>
                            <path d="M54.698282,35.0182836 C53.9756128,35.2706443 53.121485,35.5103164 52.1351917,35.7348328 C51.1492519,35.9614639 50.0519962,36.0749557 48.839891,36.0749557 C48.6225602,36.0749557 48.3610564,36.0601525 48.0536128,36.0333656 C47.7461692,36.0062262 47.4387256,35.9695705 47.1323421,35.9244557 C46.8238383,35.8796934 46.5163947,35.8243574 46.2089511,35.7619721 C45.9015075,35.6995869 45.6400038,35.6223984 45.4237331,35.5325213 L46.100109,32.2042508 C46.4630338,32.2958902 46.8874474,32.3899967 47.3747632,32.4890377 C47.8645526,32.5880787 48.3882669,32.6381279 48.9476729,32.6381279 C49.2017556,32.6381279 49.505312,32.6162754 49.8586955,32.5715131 C50.2099586,32.5246361 50.4767632,32.4752918 50.6584023,32.4213656 L50.6573421,17.595882 L54.698282,17.595882 L54.698282,35.0182836 Z" id="Fill-5" fill="#FFFFFF"></path>
                            <path d="M81.0361985,24.6033664 C81.0361985,22.0064484 80.0785293,20.7079893 78.1624842,20.7079893 C77.7461985,20.7079893 77.3341534,20.762268 76.9277624,20.8694156 C76.5206647,20.9769156 76.1902511,21.1136697 75.9372286,21.2765057 L75.9372286,28.6065959 C76.1368902,28.6428992 76.389206,28.674268 76.6962962,28.7014074 C77.0037398,28.7285467 77.3387474,28.74335 77.7002586,28.74335 C78.8035218,28.74335 79.6360932,28.3633992 80.1954992,27.6052598 C80.7559654,26.8481779 81.0361985,25.8489566 81.0361985,24.6033664 M85.1594767,24.7108664 C85.1594767,25.8489566 84.9912662,26.8753172 84.6576722,27.7948828 C84.323018,28.7158582 83.8399429,29.500432 83.2073865,30.1482516 C82.5734165,30.7978336 81.7963263,31.2997352 80.8743489,31.6511369 C79.9530782,32.0025385 78.9017624,32.1777107 77.7274692,32.1777107 C77.2380331,32.1777107 76.7277474,32.1558582 76.1955519,32.1096861 C75.6622962,32.0649238 75.1371684,32.0053582 74.6229955,31.9334566 C74.107409,31.8615549 73.6137323,31.7762598 73.1451459,31.6782762 C72.6733789,31.5781779 72.2585068,31.4759648 71.8966421,31.36635 L71.8966421,11.4823746 L75.9372286,10.83385 L75.9372286,17.9210959 C76.389206,17.7237189 76.8595594,17.5693418 77.3489955,17.4621943 C77.8363113,17.3525795 78.3603789,17.2983008 78.9208451,17.2983008 C79.9339955,17.2983008 80.8291158,17.4745303 81.606206,17.8269893 C82.3832962,18.178391 83.034582,18.6781779 83.5597098,19.3281123 C84.0844842,19.9776943 84.4809805,20.7569811 84.7527323,21.6673828 C85.0237774,22.5802516 85.1594767,23.5928664 85.1594767,24.7108664" id="Fill-7" fill="#FFFFFF"></path>
                            <path d="M70.0928669,24.6842557 C70.0928669,25.8022557 69.9296038,26.8257967 69.6034308,27.7548787 C69.278318,28.6839607 68.8086714,29.4776984 68.1937842,30.134682 C67.578897,30.7934279 66.8417391,31.3030836 65.9830173,31.6629443 C65.1232353,32.0249197 64.1613256,32.2053787 63.0948143,32.2053787 C62.0459722,32.2053787 61.0921902,32.0249197 60.2327617,31.6629443 C59.3751,31.3030836 58.636882,30.7934279 58.0230549,30.134682 C57.4071075,29.4776984 56.9272128,28.6839607 56.5840774,27.7548787 C56.2409421,26.8257967 56.0706113,25.8022557 56.0706113,24.6842557 C56.0706113,23.5662557 56.2462429,22.5472967 56.5985662,21.6284361 C56.9512429,20.7071082 57.4392654,19.9228869 58.0615737,19.2743623 C58.6870624,18.6244279 59.4284609,18.1197066 60.2868293,17.7587885 C61.1466113,17.3989279 62.0816639,17.2174115 63.0948143,17.2174115 C64.1249271,17.2174115 65.0691677,17.3989279 65.9296564,17.7587885 C66.787318,18.1197066 67.5244759,18.6244279 68.1393632,19.2743623 C68.7542504,19.9228869 69.233085,20.7071082 69.5772805,21.6284361 C69.9204158,22.5472967 70.0928669,23.5662557 70.0928669,24.6842557 M65.9695887,24.6842557 C65.9695887,23.4400754 65.7215135,22.4616492 65.2239496,21.7493295 C64.7270925,21.0370098 64.0171451,20.6813787 63.0948143,20.6813787 C62.1714233,20.6813787 61.4572353,21.0370098 60.951897,21.7493295 C60.4458519,22.4616492 60.1928293,23.4400754 60.1928293,24.6842557 C60.1928293,25.9287885 60.4458519,26.9170836 60.951897,27.6463213 C61.4572353,28.3776738 62.1714233,28.7424689 63.0948143,28.7424689 C64.0171451,28.7424689 64.7270925,28.3776738 65.2239496,27.6463213 C65.7215135,26.9170836 65.9695887,25.9287885 65.9695887,24.6842557" id="Fill-9" fill="#FFFFFF"></path>
                            <g id="Group-13" transform="translate(0.000000, 0.327082)">
                                <mask id="mask-2" fill="white">
                                    <use xlink:href="#path-1"></use>
                                </mask>
                                <g id="Clip-12"></g>
                                <path d="M20.8029774,42.647682 C25.5545714,42.5800098 29.6937519,40.9601082 32.2946541,39.2411656 C33.8880602,38.1866082 33.8756917,36.8116656 33.2993233,36.0077066 C32.7243684,35.2048049 31.6062632,34.7980672 30.089188,35.767682 C27.6840602,37.3054607 25.5001504,38.695559 20.8029774,38.7093049 C10.964782,38.7350344 3.87343609,30.586182 3.87343609,21.3098131 C3.87343609,12.0345016 11.2764662,4.11721475 20.8029774,4.06716557 C30.3294887,4.01605902 37.5431053,12.0228705 37.5431053,21.353518 C37.5431053,27.5782967 34.7436015,28.9049525 32.5413158,27.2029279 L32.5413158,16.8018623 C32.5413158,14.8922393 31.8416165,14.0861656 29.8683233,14.0861656 L25.2619699,14.0903951 L25.2619699,12.4528705 C25.2619699,11.5118049 24.7410827,10.9725426 23.7791729,10.9725426 L17.9949925,10.9725426 C17.0645338,10.9725426 16.5206767,11.5015836 16.5206767,12.4528705 L16.5206767,14.0903951 L11.8924135,14.0861656 C10.0654211,14.0836984 9.22754887,14.9299525 9.22754887,16.7944607 L9.22754887,29.0332475 C9.22754887,31.1025344 10.0035789,31.8680754 12.0259925,31.8680754 L29.8852857,31.8680754 C31.7695263,31.8680754 32.2285714,31.575182 32.5413158,30.2608623 C33.9332932,31.0204115 35.9797368,30.7877885 36.9960677,30.297518 C38.0116917,29.8093623 41.9444962,27.632223 41.9444962,21.353518 C41.9444962,9.07137869 31.9211278,0.0251655738 20.8029774,0.0251655738 C9.68482707,0.0251655738 -0.0689097744,9.49573934 0.00106015038,21.3098131 C-0.120150376,33.0519852 9.46396241,42.6621328 20.8029774,42.647682 Z M18.4133985,13.1972639 C18.4091579,12.9731 18.4950301,12.8564361 18.7293233,12.8606656 L23.0543835,12.8606656 C23.3264887,12.8656 23.3731353,12.9805016 23.3731353,13.1972639 L23.3731353,14.0903951 L18.4133985,14.0903951 L18.4133985,13.1972639 Z M13.031015,28.0876 L28.7537519,28.0876 L28.7537519,17.879682 L13.031015,17.879682 L13.031015,28.0876 Z" id="Fill-11" fill="#FF9000" mask="url(#mask-2)"></path>
                            </g>
                            <path d="M123.825635,24.819177 C123.825635,23.5570213 124.020349,22.4527672 124.409071,21.5057098 C124.798146,20.5586525 125.309492,19.7709066 125.941341,19.1389475 C126.574958,18.5080459 127.302574,18.0290541 128.124898,17.7037344 C128.948988,17.3794721 129.792514,17.2176934 130.660777,17.2176934 C132.686371,17.2176934 134.286138,17.8352016 135.462552,19.070218 C136.636845,20.3059393 137.224875,22.1242754 137.224875,24.5220541 C137.224875,24.7564393 137.215334,25.0140869 137.198725,25.2935869 C137.179642,25.5730869 137.161973,25.8215705 137.14395,26.0376279 L127.976123,26.0376279 C128.066236,26.8666115 128.455311,27.5257098 129.142289,28.0106934 C129.829266,28.4977918 130.750537,28.7416934 131.909281,28.7416934 C132.648559,28.7416934 133.377589,28.6740213 134.090717,28.539382 C134.805965,28.4036852 135.388341,28.2373246 135.841026,28.0388902 L136.385236,31.312882 C136.167552,31.420382 135.877777,31.5289393 135.515913,31.6360869 C135.154048,31.7457016 134.752605,31.8405131 134.308048,31.9198164 C133.867026,32.0022918 133.391018,32.0703164 132.884973,32.1231852 C132.378928,32.1774639 131.872529,32.2060131 131.365424,32.2060131 C130.082289,32.2060131 128.966657,32.0156852 128.016056,31.6360869 C127.067574,31.2586033 126.280943,30.7390787 125.656868,30.0810377 C125.032439,29.4229967 124.571274,28.6426525 124.274432,27.7417672 C123.975116,26.8405295 123.825635,25.8652754 123.825635,24.819177 Z M133.317868,23.2775213 C133.300905,22.9345787 133.242597,22.6008 133.142236,22.2761852 C133.042935,21.9529803 132.88886,21.6629066 132.682131,21.4105459 C132.472928,21.1581852 132.211424,20.9516443 131.894439,20.7888082 C131.577808,20.6263246 131.185552,20.5459639 130.715198,20.5459639 C130.263221,20.5459639 129.874146,20.6220951 129.549033,20.7754148 C129.222507,20.9287344 128.951815,21.1310459 128.735544,21.3844639 C128.51786,21.6368246 128.35071,21.9290131 128.232326,22.2627918 C128.115356,22.5965705 128.029484,22.9345787 127.976123,23.2775213 L133.317868,23.2775213 Z" id="Fill-14" fill="#FF9000"></path>
                            <path d="M104.837317,29.012382 C105.23558,29.012382 105.616527,29.003218 105.976271,28.9855951 C106.339196,28.9676197 106.627557,28.939423 106.846302,28.904882 L106.846302,25.8473 C106.683038,25.8117016 106.439557,25.7750459 106.114091,25.7398 C105.786858,25.7031443 105.488956,25.6855213 105.21685,25.6855213 C104.837317,25.6855213 104.481813,25.7084311 104.146098,25.7542508 C103.812505,25.7979557 103.518843,25.8836033 103.264407,26.0090787 C103.012444,26.1359639 102.811723,26.3069066 102.667542,26.5236689 C102.523008,26.7400787 102.450918,27.0111197 102.450918,27.3364393 C102.450918,27.9662836 102.663302,28.4033328 103.088775,28.6475869 C103.513189,28.8914885 104.096978,29.012382 104.837317,29.012382 M104.513264,17.2183984 C105.706286,17.2183984 106.700708,17.3537426 107.495467,17.6230213 C108.291286,17.8940623 108.929497,18.2821197 109.409392,18.7857836 C109.888226,19.2919148 110.227121,19.9041361 110.424662,20.6259721 C110.623617,21.3485131 110.723625,22.1507098 110.723625,23.035382 L110.723625,31.4207344 C110.144429,31.5458574 109.340129,31.6938902 108.309309,31.8662426 C107.280256,32.0382426 106.031399,32.1238902 104.567332,32.1238902 C103.645001,32.1238902 102.808542,32.0424721 102.057602,31.8799885 C101.308076,31.7182098 100.661738,31.4531607 100.11788,31.0816689 C99.5761436,30.7126443 99.1612714,30.2308328 98.871497,29.6355295 C98.5817226,29.0395213 98.4375421,28.3095787 98.4375421,27.4439393 C98.4375421,26.6146033 98.6036323,25.9118 98.9382865,25.3337672 C99.2729406,24.7560869 99.7206774,24.2961279 100.281144,23.9538902 C100.84161,23.6109475 101.484768,23.3638738 102.207437,23.2116115 C102.930106,23.0572344 103.681753,22.9796934 104.458843,22.9796934 C104.982557,22.9796934 105.449023,23.0029557 105.854708,23.047718 C106.262512,23.0935377 106.591865,23.1520459 106.846302,23.2239475 L106.846302,22.8443492 C106.846302,22.1602262 106.637098,21.6103902 106.221873,21.1941361 C105.805587,20.7803492 105.082918,20.5716934 104.052098,20.5716934 C103.364768,20.5716934 102.685211,20.6228 102.016963,20.721841 C101.348715,20.8198246 100.76952,20.9604557 100.281144,21.1402098 L99.7666173,17.8940623 C100.000557,17.8211033 100.294572,17.7460295 100.648309,17.6635541 C101.000632,17.5821361 101.384407,17.5112918 101.800339,17.4478492 C102.215565,17.3851115 102.65482,17.3297754 103.114926,17.2850131 C103.577151,17.2402508 104.041497,17.2183984 104.513264,17.2183984" id="Fill-16" fill="#FF9000"></path>
                            <path d="M86.3535241,24.7112541 C86.3535241,23.6831311 86.5199677,22.7138689 86.8542684,21.8034672 C87.1878624,20.8930656 87.6730579,20.0993279 88.3059677,19.4222541 C88.9385241,18.7462377 89.7071331,18.2101475 90.6107346,17.8129262 C91.5150429,17.4164098 92.5462158,17.2172705 93.7017797,17.2172705 C94.4633211,17.2172705 95.1584263,17.2852951 95.7923962,17.4206393 C96.4249526,17.5563361 97.0387797,17.7501885 97.6349376,18.0014918 L96.7952985,21.2215574 C96.4147045,21.0774016 95.9994789,20.9501639 95.5478549,20.8426639 C95.0958774,20.734459 94.5887722,20.6812377 94.0293662,20.6812377 C92.8349301,20.6812377 91.9451105,21.0502623 91.3563737,21.7897213 C90.7697571,22.5295328 90.474682,23.503377 90.474682,24.7112541 C90.474682,25.9920902 90.7517346,26.9828525 91.3030128,27.6877705 C91.8549977,28.3902213 92.8172609,28.741623 94.1912158,28.741623 C94.6806519,28.741623 95.2036594,28.6968607 95.7651857,28.6069836 C96.3245917,28.517459 96.8401782,28.3722459 97.3105316,28.1738115 L97.8794789,31.4738852 C97.4101857,31.673377 96.8214489,31.8443197 96.117509,31.9891803 C95.4128624,32.1333361 94.634712,32.2052377 93.7844714,32.2052377 C92.4826068,32.2052377 91.3616744,32.0113852 90.4213211,31.6229754 C89.4813211,31.2352705 88.7084714,30.7076393 88.1020654,30.0411393 C87.4974263,29.373582 87.0528699,28.5847787 86.7729902,27.674377 C86.4927571,26.7639754 86.3535241,25.7753279 86.3535241,24.7112541" id="Fill-18" fill="#FF9000"></path>
                            <path d="M123.180286,27.6125205 C123.180286,29.5189713 121.284383,32.157832 116.856489,32.1349221 C114.650316,32.1247008 113.224767,31.7926844 111.973083,31.3796025 L112.509519,28.1944303 C113.630805,28.5331434 115.046459,28.8993484 116.767789,29.0100205 C117.985902,29.0889713 119.313211,28.8922992 119.435481,27.8123648 C119.621714,26.1639139 117.877414,26.2389877 116.105902,25.772332 C113.373541,25.0526107 111.770241,23.7178484 111.898872,21.3168975 C112.056835,18.3432008 114.880368,17.2177992 117.853383,17.2177992 C119.837278,17.2177992 121.196391,17.4877828 122.174203,17.8229713 L121.334564,21.0581926 C120.06309,20.5753238 118.999406,20.3948648 118.057286,20.3740697 C116.638098,20.3405861 115.653218,20.7078484 115.594556,21.519209 C115.487835,23.024209 117.45194,22.9847336 119.049586,23.3276762 C120.671617,23.6762582 123.180286,24.6761844 123.180286,27.6125205" id="Fill-20" fill="#FF9000"></path>
                        </g>
                    </g>
                </g>
            </g>
        </g>
    </g>
</svg>
